<svg xmlns="http://www.w3.org/2000/svg" x="0px" y="0px" width="100" height="100" viewBox="0 0 128 128">
<path fill="#ff977b" d="M64,102.13c-9.79.34-11.91-8.69-9.1-14.81a11.694,11.694,0,0,0,1.28-4.18,17.549,17.549,0,0,0,.15-2.38c2.84,1.08,12.5,1.08,15.34,0a15.887,15.887,0,0,0,.14,2.25,11.837,11.837,0,0,0,1.29,4.31C74.33,91.43,75.75,102.13,64,102.13Z"></path><path fill="#ff503e" d="M101.54,110.05a29.805,29.805,0,0,0-2.74-3.65A50.876,50.876,0,0,0,81.74,93.69c-.19-.09-.39-.18-.59-.27-6.338-2.482-13.93.2-13.93.2-.44.42-.86.83-1.25,1.22A6.6,6.6,0,0,0,64,99.55a6.6,6.6,0,0,0-1.97-4.71c-.39-.39-.81-.8-1.25-1.22,0,0-9.436-1.339-13.93-.2-.2.09-.4.18-.59.27A50.876,50.876,0,0,0,29.2,106.4a29.805,29.805,0,0,0-2.74,3.65c-2.58,4.12-.19,6.35,3.51,8.39,3.81,2.1,15.41,6.51,34.03,6.51s30.22-4.41,34.03-6.51C101.73,116.4,104.12,114.17,101.54,110.05Z"></path><path fill="#eae3d3" d="M64,112.91v12.04c-18.62,0-30.22-4.41-34.03-6.51-3.7-2.04-6.09-4.27-3.51-8.39a29.805,29.805,0,0,1,2.74-3.65C46.73,104.4,55.25,112.91,64,112.91Z"></path><path fill="#eae3d3" d="M64,112.91v12.04c18.62,0,30.22-4.41,34.03-6.51,3.7-2.04,6.09-4.27,3.51-8.39a29.805,29.805,0,0,0-2.74-3.65C81.27,104.4,72.75,112.91,64,112.91Z"></path><path fill="#ff503e" d="M64,99.55v13.36c8.75,0,17.27-8.51,34.8-6.51A50.876,50.876,0,0,0,81.74,93.69c-.19-.09-.39-.18-.59-.27-5.983-3.265-13.93.2-13.93.2-.44.42-.86.83-1.25,1.22A6.6,6.6,0,0,0,64,99.55Z"></path><path fill="#ff503e" d="M64,99.55v13.36c-8.75,0-17.27-8.51-34.8-6.51A50.876,50.876,0,0,1,46.26,93.69c.19-.09.39-.18.59-.27,5.983-3.265,13.93.2,13.93.2.44.42.86.83,1.25,1.22A6.6,6.6,0,0,1,64,99.55Z"></path><path fill="#9b4e4e" d="M47.09,10.56C54.67,2.71,69.22,1.31,74.14,3.5c3.5,1.55-1.28,4.66-1.28,4.66S83.9,6.39,90.31,13.7c1.12,1.27.57,2.12-.12,2.63.87.69,6.65,5.28,7.34,11.95.34,3.23-1.91,3.33-2.86,2.98.14,1.22,1.17,8.32.8,13.34H32.53a75.331,75.331,0,0,1,.48-13.72s-2.98.31-2.98-2.36c0-3.76,6.48-10.45,8.75-12.12-2.14.13-4.72-.25-4.32-2.91.36-2.39,6.82-2.73,6.82-2.73h.02c.37-2.27,2.01-5.94,4.73-4.41C47.98,7.45,47.09,10.56,47.09,10.56Z"></path><path fill="#ff977b" d="M89.72,44.75c.98-.7,4.12-.91,5.75-.15,2.92,1.36,3.98,4.9,2.79,9.1-1.17,4.17-5.52,7.78-9.78,6.32-1.48-1.832-1.268-5.7-1.168-8.332C87.382,49.9,87.906,46.531,89.72,44.75Z"></path><path fill="#ff977b" d="M40.906,52.438c.1,2.63.156,6.625-1.386,7.582-4.26,1.46-8.61-2.15-9.78-6.32-1.19-4.2-.13-7.74,2.79-9.1,1.63-.76,4.77-.55,5.75.15A14.106,14.106,0,0,1,40.906,52.438Z"></path><path fill="#ffb497" d="M38.55,51.74c-.07-1.79-.13-3.96-.27-6.99-.38-8.33,4.04-23.92,9.79-24.94,4.35-.56,6.86.51,15.93.51s11.58-1.07,15.93-.51c5.75,1.02,10.17,16.61,9.79,24.94-.14,3.03-.2,5.2-.27,6.99a44.431,44.431,0,0,1-.72,7.02c-.08.43-.16.85-.25,1.26C86.02,71.23,78.97,78,71.67,80.76A22.179,22.179,0,0,1,64,82.39a22.179,22.179,0,0,1-7.67-1.63C49.03,78,41.98,71.23,39.52,60.02c-.09-.41-.17-.83-.25-1.26A44.431,44.431,0,0,1,38.55,51.74Z"></path><path fill="#5e4c91" d="M96.42,119.24c-.08-4.18-.639-12.37-2.27-17.5-2.4-7.541-11.71-8.83-11.25-7.49a71.322,71.322,0,0,1,2.61,12.62c.78,5.98,1.18,11.97,1.48,15.51.04.39.07.75.1,1.08.21,2.12,9.31-.19,9.35-3.12C96.44,120.01,96.44,119.65,96.42,119.24Z"></path><path fill="#ff7364" d="M71.81,83.01a15.17,15.17,0,0,1-7.92,2.1,15.337,15.337,0,0,1-7.71-1.97,17.549,17.549,0,0,0,.15-2.38c2.84,1.08,12.5,1.08,15.34,0A15.887,15.887,0,0,0,71.81,83.01Z"></path><path fill="#ff7348" d="M81.15,93.42c-.66,3.29-2.52,8.13-5.39,7.35-4.1-1.11-8.54-7.15-8.54-7.15a73.777,73.777,0,0,0,5.88-6.3c.66-.84,2.05-2.94,3.82-2.25,1.18.46,4.08,4.4,4.44,5.72v.01A6.6,6.6,0,0,1,81.15,93.42Z"></path><path fill="#ff7348" d="M46.85,93.42c.66,3.29,2.52,8.13,5.39,7.35,4.1-1.11,8.54-7.15,8.54-7.15a73.777,73.777,0,0,1-5.88-6.3c-.66-.84-2.05-2.94-3.82-2.25-1.18.46-4.08,4.4-4.44,5.72v.01A6.6,6.6,0,0,0,46.85,93.42Z"></path><path fill="#473049" d="M64,57.27c-.025,0-2.57-.042-2.57-1.56a1,1,0,0,1,1.811-.585,2.063,2.063,0,0,0,1.517,0,1,1,0,0,1,1.812.584C66.57,57.228,64.025,57.27,64,57.27Z"></path><path fill="#473049" d="M63.99,66.69c-1.414,0-3.274-.192-4.108-1.106a1,1,0,0,1,1.474-1.351,4.939,4.939,0,0,0,2.634.457,5,5,0,0,0,2.656-.458,1.03,1.03,0,0,1,1.411-.011.972.972,0,0,1,.061,1.363C67.284,66.5,65.413,66.69,63.99,66.69Z"></path><path fill="#473049" d="M79.98,46.76a.994.994,0,0,1-.724-.311,4.494,4.494,0,0,0-5.966-.19,1,1,0,1,1-1.279-1.537,6.465,6.465,0,0,1,8.694.349,1,1,0,0,1-.725,1.689Z"></path><path fill="#473049" d="M70.41,40.4a1,1,0,0,1-.329-1.944c4.437-1.546,10.557-1.212,12.665.094a1,1,0,1,1-1.053,1.7c-1.321-.817-6.612-1.418-10.954.094A.994.994,0,0,1,70.41,40.4Z"></path><path fill="#473049" d="M48.02,46.76a1,1,0,0,1-.725-1.689,6.464,6.464,0,0,1,8.694-.349,1,1,0,0,1-1.279,1.537,4.492,4.492,0,0,0-5.966.19A1,1,0,0,1,48.02,46.76Z"></path><path fill="#473049" d="M57.59,40.4a.994.994,0,0,1-.329-.056c-4.342-1.512-9.633-.911-10.954-.094a1,1,0,1,1-1.053-1.7c2.109-1.3,8.225-1.64,12.665-.094A1,1,0,0,1,57.59,40.4Z"></path><path fill="#473049" d="M102.389,109.52a31.524,31.524,0,0,0-2.84-3.781A46.752,46.752,0,0,0,95,101.164a13.075,13.075,0,0,0-9.566-8.191,4.549,4.549,0,0,0-2.788.046l-.376-.178a5.123,5.123,0,0,0,.054-2.3l0-.011c-.413-1.511-3.494-5.782-5.041-6.388-1.66-.651-3.012.319-3.92,1.281a13.644,13.644,0,0,1-.664-4.007c8.176-3.356,14.129-10.636,16.509-20.179a7.009,7.009,0,0,0,1.25.119,7.753,7.753,0,0,0,3.616-.934,10.758,10.758,0,0,0,5.147-6.446c1.244-4.387.175-8.2-2.717-9.952a73.349,73.349,0,0,0-.686-11.637,2.956,2.956,0,0,0,1.552-.6c.647-.5,1.371-1.538,1.154-3.606-.588-5.672-4.544-9.9-6.9-11.951a2.284,2.284,0,0,0,.31-.923,2.951,2.951,0,0,0-.876-2.262C86.391,7.712,79.529,6.916,75.649,6.963a3.241,3.241,0,0,0,.765-2.153,2.693,2.693,0,0,0-1.868-2.224C69.736.444,56.419,1.531,48.232,8.17a3.523,3.523,0,0,0-1.711-2.691,3.187,3.187,0,0,0-3.07-.184c-1.653.8-2.575,2.955-2.97,4.52-2.2.193-6.615.906-7.01,3.526a3.243,3.243,0,0,0,.726,2.8,3.942,3.942,0,0,0,2.111,1.086C33.4,20,29.03,25.087,29.03,28.52a3.176,3.176,0,0,0,1,2.459,3.656,3.656,0,0,0,1.852.843,75.869,75.869,0,0,0-.395,12.2c-2.89,1.749-3.957,5.564-2.715,9.947a10.76,10.76,0,0,0,5.148,6.449,7.753,7.753,0,0,0,3.616.934,7.018,7.018,0,0,0,1.25-.119c2.38,9.544,8.333,16.824,16.509,20.179a13.612,13.612,0,0,1-.664,4.007c-.908-.962-2.26-1.931-3.921-1.281-1.546.606-4.627,4.877-5.04,6.388l0,.011a5.11,5.11,0,0,0,.054,2.3,51.46,51.46,0,0,0-17.282,12.907,30.668,30.668,0,0,0-2.832,3.774,6.117,6.117,0,0,0-1.085,4.856c.589,2.269,2.838,3.771,4.96,4.941C30.719,120,42.155,125.95,64,125.95a98.989,98.989,0,0,0,22.1-2.343c.069.549.485,1.676,2.766,1.676.1,0,.207,0,.316-.007,2.781-.118,8.214-1.963,8.255-4.922v-.014c0-.146-.007-.317-.008-.473.369-.179.73-.36,1.081-.552,2.122-1.169,4.371-2.671,4.96-4.94A6.117,6.117,0,0,0,102.389,109.52ZM64,83.39a22.013,22.013,0,0,0,6.735-1.257,13.974,13.974,0,0,0,1.2,5.023,78.362,78.362,0,0,1-5.4,5.741c-.445.425-.87.84-1.26,1.23A7.652,7.652,0,0,0,64,95.781a7.584,7.584,0,0,0-1.264-1.649c-.393-.393-.817-.806-1.249-1.219l-.015-.016a78.024,78.024,0,0,1-5.4-5.741,13.974,13.974,0,0,0,1.2-5.023A22.018,22.018,0,0,0,64,83.39Zm1,30.477c3.163-.209,6.254-1.359,9.778-2.682a69.935,69.935,0,0,1,9.876-3.094c.542,4.4.89,8.754,1.147,12,.043.536.083,1.032.121,1.51A95.88,95.88,0,0,1,65,123.937Zm9.075-4.555c-3.322,1.247-6.238,2.335-9.075,2.552V99.55a5.571,5.571,0,0,1,1.676-4c.143-.143.29-.288.441-.437,1.461,1.793,4.958,5.7,8.381,6.624a3.324,3.324,0,0,0,.868.118,3.363,3.363,0,0,0,1.78-.525c2.052-1.268,3.178-4.5,3.7-6.478l.234.112a68.846,68.846,0,0,1,2.313,11.122A70.523,70.523,0,0,0,74.075,109.312ZM76.555,86c.789.329,3.433,3.793,3.821,4.989a.881.881,0,0,0,.045.151,6.624,6.624,0,0,1-.251,2.083c-.514,2.559-1.663,5.531-3.075,6.4a1.294,1.294,0,0,1-1.074.178c-2.939-.8-6.209-4.544-7.465-6.1a68.23,68.23,0,0,0,5.324-5.761v0l0,0,.2-.255C74.834,86.7,75.705,85.667,76.555,86ZM97.3,53.43a8.7,8.7,0,0,1-4.152,5.218,5.646,5.646,0,0,1-3.5.629c.022-.114.046-.222.067-.338a44.743,44.743,0,0,0,.721-6.825,3.058,3.058,0,0,1,3.106-.973,1,1,0,0,0,.564-1.919,5.308,5.308,0,0,0-3.574.307c.041-1.181.09-2.537.162-4.138a7.384,7.384,0,0,1,4.355.116C97.5,46.647,98.359,49.683,97.3,53.43ZM31.375,29.493a1.164,1.164,0,0,1-.345-.973c0-3.029,5.607-9.182,8.128-11.146a16.787,16.787,0,0,0,2.508-.395,1,1,0,0,0-.492-1.938,14.944,14.944,0,0,1-2.454.361c-1.491.089-2.609-.132-3.047-.612-.084-.092-.341-.373-.224-1.151s2.445-1.512,4.8-1.787a.985.985,0,0,0,.963.818,1,1,0,0,0,1-1,4.5,4.5,0,0,1,.077-.749c.244-1.5,1.039-3.347,2.031-3.824a1.219,1.219,0,0,1,1.221.124c1.01.57.754,2.278.635,2.856-.332.35-.646.7-.923,1.046a1,1,0,0,0,1.559,1.254c.294-.366.629-.743,1-1.122,7.17-7.426,21.3-8.9,25.924-6.84.411.181.673.394.686.555.043.53-1.076,1.679-2.107,2.353a1,1,0,0,0,.7,1.825c.105-.017,10.582-1.585,16.542,5.214.386.438.4.67.389.73a.787.787,0,0,1-.353.434,1,1,0,0,0-.028,1.587c1.9,1.509,6.383,5.626,6.968,11.271.095.9-.045,1.549-.393,1.821a1.286,1.286,0,0,1-1.127.116,1,1,0,0,0-1.339,1.053l.077.625a80.456,80.456,0,0,1,.777,11.291,10.145,10.145,0,0,0-3.8.033c-.134-8.543-4.256-23.367-10.678-24.5a28.872,28.872,0,0,0-6.723.068c-2.248.193-5.047.434-9.335.434s-7.087-.241-9.335-.434a28.963,28.963,0,0,0-6.769-.061c-6.378,1.132-10.5,15.955-10.632,24.5a10.121,10.121,0,0,0-3.81-.029A76.929,76.929,0,0,1,34,31.017a1,1,0,0,0-1.094-1.132A2.331,2.331,0,0,1,31.375,29.493Zm3.48,29.155a8.7,8.7,0,0,1-4.153-5.22c-1.061-3.745-.2-6.781,2.251-7.922a7.38,7.38,0,0,1,4.354-.115c.072,1.6.121,2.957.162,4.138a5.308,5.308,0,0,0-3.574-.307,1,1,0,0,0,.57,1.917,3.059,3.059,0,0,1,3.1.976,44.834,44.834,0,0,0,.721,6.828c.021.114.045.221.067.334A5.629,5.629,0,0,1,34.855,58.648ZM40.5,59.806c-.087-.4-.165-.809-.243-1.226a42.708,42.708,0,0,1-.7-6.659.98.98,0,0,0-.015-.37l-.059-1.635c-.049-1.433-.108-3.117-.2-5.212h0c-.4-8.743,4.341-23.09,8.919-23.9a27.419,27.419,0,0,1,6.3.076c2.286.2,5.132.442,9.506.442s7.22-.245,9.506-.442a27.449,27.449,0,0,1,6.249-.083c4.625.82,9.364,15.167,8.966,23.909-.1,2.095-.156,3.779-.2,5.212l-.059,1.634a.987.987,0,0,0-.015.371,42.646,42.646,0,0,1-.695,6.656c-.078.42-.156.829-.243,1.229-2.115,9.632-8.015,16.928-16.19,20.019A21.317,21.317,0,0,1,64,81.39a21.317,21.317,0,0,1-7.316-1.566C48.511,76.734,42.611,69.438,40.5,59.806Zm7.074,31.36a.961.961,0,0,0,.045-.15c.357-1.17,3.035-4.685,3.829-5.015.847-.33,1.721.693,2.474,1.682l.2.256a67.867,67.867,0,0,0,5.333,5.77c-1.534,1.908-4.752,5.36-7.469,6.1a1.3,1.3,0,0,1-1.074-.178c-1.412-.873-2.561-3.845-3.075-6.4A7.244,7.244,0,0,1,47.57,91.166Zm-1.413,3.686c.519,1.98,1.646,5.208,3.7,6.476a3.363,3.363,0,0,0,1.78.525,3.287,3.287,0,0,0,.868-.118c3.423-.926,6.92-4.831,8.381-6.624.152.149.3.3.446.441a5.571,5.571,0,0,1,1.671,4v12.314c-2.845-.217-5.767-1.307-9.1-2.558-5.637-2.116-12.552-4.7-22.244-4.116A51.094,51.094,0,0,1,46.157,94.852ZM26.464,113.873a4.27,4.27,0,0,1,.844-3.293,28.368,28.368,0,0,1,2.4-3.223c10.371-1.1,17.34,1.51,23.5,3.821,3.532,1.327,6.63,2.48,9.8,2.689v10.075c-20.683-.176-31.38-5.735-32.548-6.378C27.974,116.2,26.78,115.093,26.464,113.873ZM93.6,122.028c-2.24,1.15-4.849,1.431-5.528,1.169l-.012-.139c-.022-.246-.044-.506-.072-.763-.058-.7-.122-1.494-.191-2.367-.28-3.531-.664-8.366-1.294-13.19A75.391,75.391,0,0,0,84.127,94.8a11.14,11.14,0,0,1,9.07,7.247c1.587,4.992,2.143,13.142,2.223,17.221v.026c.019.388.019.728.019,1.041C95.432,120.683,94.944,121.336,93.6,122.028Zm7.938-8.155c-.316,1.22-1.51,2.324-3.984,3.689-.055.03-.124.064-.181.094A86.416,86.416,0,0,0,95.956,104.8c.732.736,1.427,1.485,2.076,2.241a29.1,29.1,0,0,1,2.66,3.538A4.266,4.266,0,0,1,101.536,113.873Z"></path><rect width="4.784" height="6.756" x="73.33" y="45.806" fill="#473049" rx="2.392" ry="2.392"></rect><rect width="4.784" height="6.756" x="49.886" y="45.806" fill="#473049" rx="2.392" ry="2.392" transform="rotate(-180 52.278 49.184)"></rect>
</svg>
