<svg width="448" height="448" viewBox="0 0 448 448" fill="none" xmlns="http://www.w3.org/2000/svg">
<path d="M142.604 68.7918C179.306 30.693 249.756 23.8983 273.579 34.5272C290.526 42.0499 267.381 57.1438 267.381 57.1438C267.381 57.1438 320.836 48.5534 351.873 84.0314C357.296 90.1951 354.633 94.3205 351.292 96.7957C355.505 100.145 383.491 122.421 386.832 154.793C388.478 170.47 377.584 170.955 372.984 169.256C373.662 175.177 378.649 209.636 376.858 234H72.1049C70.856 211.779 71.634 189.491 74.429 167.412C74.429 167.412 60 168.917 60 155.958C60 137.709 91.3759 105.241 102.367 97.1354C92.0053 97.7664 79.5131 95.9221 81.4499 83.0122C83.193 71.4126 114.472 69.7625 114.472 69.7625H114.569C116.36 58.7454 124.301 40.9336 137.471 48.3592C146.913 53.6979 142.604 68.7918 142.604 68.7918Z" fill="#9B4E4E"/>
<path d="M349.075 235.07C353.848 231.663 369.14 230.641 377.078 234.34C391.298 240.959 396.46 258.189 390.665 278.632C384.967 298.928 363.783 316.499 343.037 309.392C335.829 300.476 336.862 281.649 337.349 268.839C337.689 260.136 340.241 243.738 349.075 235.07Z" fill="#FF977B"/>
<path d="M111.79 272.489C112.277 285.29 112.55 304.735 105.031 309.392C84.2568 316.499 63.0439 298.928 57.3383 278.632C51.5352 258.189 56.7044 240.959 70.9439 234.34C78.8926 230.641 94.2049 231.663 98.9839 235.07C106.837 246.02 111.29 259.032 111.79 272.489Z" fill="#FF977B"/>
<path d="M101.416 269.005C101.077 260.304 100.787 249.755 100.11 235.026C98.2724 194.532 119.649 118.747 147.458 113.788C168.496 111.066 180.635 116.268 224.5 116.268C268.365 116.268 280.504 111.066 301.542 113.788C329.351 118.747 350.728 194.532 348.89 235.026C348.213 249.755 347.923 260.304 347.584 269.005C347.325 280.455 346.161 291.866 344.102 303.131C343.715 305.221 343.328 307.263 342.893 309.256C330.995 363.749 296.899 396.66 261.594 410.076C249.796 414.911 237.235 417.594 224.5 418C211.765 417.594 199.204 414.911 187.406 410.076C152.1 396.66 118.005 363.749 106.107 309.256C105.672 307.263 105.285 305.221 104.898 303.131C102.839 291.866 101.675 280.455 101.416 269.005Z" fill="#FFB497"/>
<path d="M224 296C223.874 296 211 295.787 211 288.082C211 287.009 211.339 285.963 211.969 285.096C212.598 284.228 213.486 283.583 214.503 283.253C215.521 282.923 216.617 282.925 217.634 283.259C218.65 283.594 219.535 284.243 220.161 285.113C222.626 286.091 225.369 286.091 227.834 285.113C228.459 284.241 229.344 283.59 230.361 283.254C231.377 282.919 232.474 282.915 233.493 283.245C234.512 283.574 235.401 284.22 236.031 285.088C236.661 285.956 237 287.003 237 288.077C237 295.787 224.126 296 224 296Z" fill="#473049"/>
<path d="M224.445 341C217.483 341 208.325 340.097 204.218 335.799C203.371 334.875 202.937 333.67 203.007 332.444C203.078 331.217 203.649 330.066 204.597 329.236C205.545 328.406 206.796 327.963 208.081 328.002C209.367 328.042 210.585 328.56 211.476 329.446C215.51 331.287 219.997 332.031 224.445 331.595C228.928 332.034 233.452 331.289 237.522 329.441C238.456 328.59 239.694 328.11 240.985 328.101C242.276 328.091 243.522 328.552 244.47 329.39C245.391 330.206 245.939 331.336 245.995 332.536C246.051 333.735 245.611 334.907 244.77 335.799C240.664 340.107 231.451 341 224.445 341Z" fill="#473049"/>
<path d="M301.291 244C300.653 244.001 300.022 243.87 299.435 243.614C298.849 243.357 298.321 242.982 297.882 242.511C294.122 238.889 289.185 236.795 284.009 236.628C278.832 236.46 273.775 238.23 269.795 241.601C269.322 242.019 268.772 242.337 268.176 242.535C267.581 242.734 266.953 242.81 266.328 242.759C265.703 242.707 265.095 242.529 264.539 242.236C263.983 241.942 263.49 241.539 263.089 241.049C262.688 240.559 262.388 239.992 262.205 239.383C262.022 238.773 261.961 238.133 262.024 237.498C262.088 236.864 262.276 236.25 262.576 235.69C262.877 235.131 263.284 234.638 263.774 234.241C269.577 229.289 276.988 226.716 284.557 227.025C292.126 227.334 299.31 230.503 304.704 235.912C305.339 236.591 305.764 237.445 305.926 238.367C306.089 239.289 305.982 240.239 305.618 241.1C305.255 241.961 304.651 242.695 303.882 243.21C303.113 243.726 302.212 244 301.291 244Z" fill="#473049"/>
<path d="M254.842 213.957C253.698 213.956 252.591 213.563 251.717 212.847C250.843 212.131 250.259 211.139 250.068 210.045C249.877 208.952 250.091 207.829 250.673 206.874C251.255 205.919 252.167 205.195 253.248 204.829C274.753 197.57 304.417 199.138 314.634 205.271C315.187 205.59 315.668 206.012 316.051 206.514C316.433 207.015 316.709 207.585 316.862 208.191C317.014 208.796 317.041 209.426 316.94 210.041C316.839 210.657 316.612 211.247 316.274 211.777C315.935 212.307 315.49 212.766 314.966 213.128C314.442 213.49 313.849 213.747 313.221 213.885C312.593 214.022 311.944 214.037 311.31 213.928C310.676 213.82 310.071 213.59 309.53 213.253C303.127 209.417 277.482 206.595 256.437 213.694C255.925 213.868 255.385 213.957 254.842 213.957Z" fill="#473049"/>
<path d="M146.725 244C145.801 244 144.897 243.726 144.125 243.21C143.353 242.695 142.748 241.961 142.383 241.101C142.018 240.24 141.911 239.289 142.074 238.367C142.237 237.445 142.663 236.592 143.3 235.913C148.713 230.503 155.922 227.334 163.518 227.025C171.114 226.716 178.55 229.289 184.374 234.242C185.307 235.063 185.885 236.222 185.985 237.47C186.084 238.719 185.697 239.957 184.907 240.919C184.117 241.882 182.986 242.493 181.756 242.62C180.527 242.747 179.298 242.382 178.331 241.601C174.339 238.228 169.263 236.458 164.068 236.625C158.873 236.793 153.919 238.887 150.146 242.511C149.705 242.981 149.174 243.355 148.586 243.611C147.999 243.867 147.365 244 146.725 244Z" fill="#473049"/>
<path d="M193.158 213.957C192.615 213.957 192.075 213.868 191.563 213.694C170.518 206.59 144.873 209.414 138.47 213.252C137.929 213.59 137.324 213.82 136.69 213.928C136.056 214.037 135.406 214.022 134.779 213.884C134.151 213.747 133.558 213.49 133.034 213.128C132.51 212.766 132.065 212.306 131.726 211.775C131.388 211.245 131.161 210.655 131.06 210.038C130.959 209.422 130.986 208.793 131.138 208.187C131.291 207.581 131.567 207.01 131.949 206.508C132.332 206.007 132.813 205.584 133.366 205.265C143.588 199.156 173.232 197.559 194.752 204.823C195.833 205.189 196.745 205.914 197.327 206.869C197.909 207.824 198.123 208.949 197.932 210.043C197.741 211.137 197.157 212.13 196.283 212.846C195.409 213.563 194.302 213.956 193.158 213.957Z" fill="#473049"/>
<path d="M292 251.684C292 245.231 287.075 240 281 240C274.925 240 270 245.231 270 251.684V261.316C270 267.769 274.925 273 281 273C287.075 273 292 267.769 292 261.316V251.684Z" fill="#473049"/>
<path d="M156 261.316C156 267.769 160.925 273 167 273C173.075 273 178 267.769 178 261.316V251.684C178 245.231 173.075 240 167 240C160.925 240 156 245.231 156 251.684V261.316Z" fill="#473049"/>
<path fill-rule="evenodd" clip-rule="evenodd" d="M268.342 411.861C306.872 395.228 334.898 360.392 346.224 314.979C348.222 315.352 350.249 315.545 352.281 315.555C358.402 315.497 364.416 313.943 369.8 311.03C375.807 307.721 381.102 303.259 385.381 297.9C389.66 292.54 392.84 286.389 394.738 279.799C400.765 258.544 395.586 240.07 381.574 231.581C381.963 212.729 380.852 193.875 378.25 175.199C380.983 174.97 383.593 173.961 385.77 172.292C388.904 169.87 392.412 164.841 391.361 154.821C388.512 127.34 369.345 106.855 357.93 96.9181C358.746 95.5527 359.258 94.0274 359.432 92.4461C359.541 90.4229 359.22 88.3995 358.488 86.5101C357.756 84.6207 356.631 82.9083 355.188 81.4866C332.576 55.648 299.329 51.7914 280.53 52.0191C282.991 49.1072 284.309 45.3995 284.237 41.5877C283.916 39.1145 282.893 36.7851 281.289 34.8753C279.685 32.9656 277.567 31.5556 275.186 30.8123C251.882 20.4343 187.36 25.7008 147.694 57.867C147.435 55.195 146.549 52.6218 145.109 50.3564C143.668 48.091 141.714 46.1973 139.404 44.829C137.201 43.4376 134.682 42.6262 132.082 42.4704C129.481 42.3145 126.883 42.8192 124.53 43.9376C116.521 47.8136 112.054 58.2546 110.14 65.8371C99.481 66.7722 78.0902 70.2267 76.1764 82.9207C75.6729 85.3 75.7285 87.7636 76.3388 90.1177C76.9492 92.4718 78.0977 94.6521 79.6939 96.4869C82.4815 99.2501 86.0528 101.087 89.9218 101.749C75.8324 115.184 54.6596 139.831 54.6596 156.464C54.5599 158.681 54.9414 160.895 55.7777 162.951C56.614 165.008 57.8854 166.859 59.5046 168.378C62.0489 170.561 65.1604 171.977 68.4776 172.462C66.2532 192.082 65.6132 211.849 66.5638 231.571C52.5617 240.045 47.392 258.529 53.4096 279.765C55.3066 286.358 58.4863 292.512 62.7664 297.874C67.0465 303.236 72.3429 307.7 78.3518 311.011C83.7357 313.924 89.7501 315.478 95.8715 315.536C97.9034 315.525 99.9303 315.332 101.928 314.959C113.459 361.2 142.301 396.472 181.915 412.727C181.914 412.734 181.914 412.741 181.914 412.748C182.83 413.097 183.734 413.442 184.628 413.783C186.986 414.683 189.27 415.555 191.485 416.378C191.488 416.325 191.491 416.273 191.493 416.221C201.365 419.721 211.696 421.748 222.151 422.238C235.858 420.958 246.321 419.205 254.507 416.979C255.247 416.734 255.986 416.482 256.722 416.221C256.724 416.263 256.726 416.305 256.728 416.347C260.338 415.272 263.476 414.095 266.239 412.816C266.238 412.793 266.238 412.77 266.238 412.747C266.623 412.589 267.007 412.429 267.39 412.267C267.493 412.217 267.595 412.166 267.696 412.115C267.888 412.019 268.104 411.934 268.342 411.861ZM377.89 291.798C381.342 287.46 383.905 282.483 385.43 277.154C390.561 258.999 386.399 244.29 374.524 238.766C367.707 236.461 360.354 236.265 353.424 238.204C353.075 245.961 352.838 252.531 352.639 258.253C358.064 255.763 364.186 255.237 369.955 256.766C371.188 257.128 372.227 257.965 372.842 259.093C373.458 260.221 373.6 261.548 373.238 262.781C372.875 264.014 372.038 265.052 370.91 265.668C369.782 266.283 368.456 266.426 367.223 266.063C364.525 265.352 361.681 265.418 359.019 266.252C356.357 267.086 353.984 268.655 352.174 270.777C351.858 281.873 350.69 292.928 348.681 303.845C348.621 304.176 348.556 304.495 348.49 304.813C348.445 305.035 348.4 305.256 348.356 305.482C354.189 306.32 360.137 305.251 365.314 302.435C370.165 299.751 374.438 296.136 377.89 291.798ZM64.6342 159.016C64.9241 159.834 65.3988 160.574 66.0212 161.178C68.1972 162.655 70.8206 163.327 73.4389 163.077C74.1698 163.001 74.9085 163.092 75.5989 163.344C76.2894 163.595 76.9136 164.001 77.4243 164.529C77.9349 165.058 78.3187 165.695 78.5466 166.394C78.7744 167.092 78.8404 167.834 78.7394 168.562C76.2581 188.297 75.3605 208.199 76.0553 228.078C82.1619 226.956 88.4261 227.004 94.5149 228.219C95.1544 186.818 115.126 115 146.027 109.515C156.933 108.331 167.941 108.431 178.823 109.811L178.885 109.816C189.766 110.75 203.315 111.913 224.052 111.913C244.788 111.913 258.338 110.75 269.219 109.816L269.28 109.811C280.088 108.433 291.02 108.322 301.853 109.481C332.968 114.971 352.94 186.794 353.589 228.185C359.661 226.972 365.908 226.918 372 228.025C372.031 209.724 370.773 191.444 368.235 173.319L367.862 170.291C367.767 169.469 367.885 168.637 368.203 167.873C368.521 167.109 369.03 166.439 369.68 165.928C370.331 165.416 371.102 165.08 371.919 164.95C372.736 164.821 373.573 164.904 374.35 165.189C375.242 165.519 376.199 165.64 377.145 165.542C378.092 165.445 379.003 165.132 379.81 164.627C381.496 163.31 382.174 160.165 381.714 155.805C378.88 128.454 357.16 108.507 347.954 101.196C347.372 100.734 346.904 100.143 346.587 99.4706C346.27 98.7981 346.112 98.0616 346.125 97.3182C346.138 96.5748 346.322 95.8444 346.663 95.1835C347.003 94.5226 347.492 93.949 348.09 93.5072C348.898 93.0394 349.507 92.2911 349.8 91.4044C349.853 91.1137 349.785 89.9897 347.915 87.8675C319.039 54.9261 268.277 62.5231 267.769 62.6055C266.675 62.774 265.556 62.563 264.599 62.0075C263.642 61.4519 262.903 60.5854 262.507 59.5521C262.111 58.5187 262.08 57.3808 262.42 56.3276C262.761 55.2744 263.451 54.3695 264.377 53.7633C269.372 50.4977 274.794 44.9308 274.586 42.3629C274.523 41.5829 273.253 40.5509 271.262 39.6739C248.858 29.6931 180.398 36.8347 145.659 72.814C143.862 74.6503 142.239 76.4768 140.814 78.2501C140.008 79.2518 138.838 79.8923 137.56 80.0309C136.282 80.1695 135.001 79.7947 134 78.989C132.998 78.1833 132.357 77.0127 132.219 75.7347C132.08 74.4568 132.455 73.1761 133.261 72.1744C134.603 70.4981 136.124 68.8023 137.733 67.1065C138.309 64.3061 139.55 56.0308 134.656 53.2691C133.811 52.6548 132.818 52.2755 131.779 52.1699C130.74 52.0644 129.691 52.2364 128.74 52.6683C123.934 54.9794 120.082 63.9282 118.9 71.1957C118.674 72.3928 118.55 73.6067 118.527 74.8247C118.527 76.1097 118.016 77.342 117.108 78.2506C116.199 79.1593 114.967 79.6697 113.682 79.6697C112.563 79.6609 111.483 79.2592 110.63 78.5348C109.777 77.8104 109.206 76.8093 109.016 75.7065C97.606 77.0389 86.3268 80.5951 85.7599 84.3646C85.1933 88.132 86.4369 89.494 86.8445 89.9405L86.8452 89.9412C88.9673 92.2668 94.3841 93.3376 101.608 92.9064C105.613 92.6538 109.59 92.0688 113.498 91.1573C114.731 90.874 116.027 91.0847 117.107 91.7444C118.188 92.4041 118.967 93.4603 119.278 94.6872C119.59 95.9141 119.409 97.2142 118.774 98.3093C118.139 99.4044 117.101 100.208 115.881 100.547C111.885 101.491 107.823 102.131 103.73 102.461C91.5158 111.976 64.3497 141.788 64.3497 156.464C64.2469 157.325 64.3443 158.199 64.6342 159.016ZM70.301 291.794C73.7538 296.134 78.0291 299.75 82.8819 302.435C88.0539 305.254 93.9997 306.324 99.8299 305.482C99.7849 305.252 99.7383 305.026 99.6917 304.801C99.6278 304.492 99.5641 304.184 99.5053 303.864C97.4969 292.942 96.3291 281.883 96.012 270.782C94.2056 268.663 91.8386 267.095 89.1821 266.258C86.5257 265.422 83.6873 265.351 80.9924 266.054C79.7639 266.409 78.4447 266.265 77.3224 265.651C76.2 265.038 75.3657 264.006 75.0012 262.78C74.6367 261.555 74.7716 260.234 75.3766 259.108C75.9816 257.981 77.0075 257.139 78.2307 256.766C84.0005 255.237 90.1223 255.763 95.5469 258.253C95.3482 252.531 95.1108 245.956 94.762 238.204C87.8343 236.263 80.4822 236.458 73.6667 238.761C61.7915 244.29 57.6199 258.999 62.7605 277.144C64.2857 282.476 66.8482 287.454 70.301 291.794ZM109.055 302.105C109.433 304.126 109.811 306.107 110.232 308.045C120.46 354.713 149.046 390.062 188.644 405.033C199.92 409.632 211.92 412.201 224.091 412.621C236.278 412.212 248.297 409.648 259.59 405.048C299.198 390.072 327.784 354.723 338.031 308.055C338.453 306.117 338.831 304.136 339.209 302.101C341.174 291.456 342.3 280.673 342.576 269.852C342.486 269.254 342.511 268.644 342.649 268.055L342.935 260.138C343.148 253.195 343.419 245.036 343.904 234.885C345.832 192.53 322.871 123.018 300.463 119.045C290.388 118.026 280.23 118.161 270.186 119.447C259.111 120.402 245.322 121.589 224.129 121.589C202.937 121.589 189.148 120.416 178.072 119.447C167.946 118.152 157.704 118.029 147.549 119.079C125.368 123.004 102.398 192.516 104.336 234.876C104.782 245.026 105.067 253.185 105.305 260.128L105.591 268.05C105.729 268.637 105.753 269.246 105.663 269.842C105.948 280.669 107.082 291.456 109.055 302.105Z" fill="#473049"/>
</svg>
